<svg width="160" height="161" viewBox="0 0 160 161" xmlns="http://www.w3.org/2000/svg">
    <title>
        Kennisbank_icon
    </title>
    <g fill="none" fill-rule="evenodd">
        <path fill="transparent" d="M0 .847h160v160H0z"/>
        <g fill-rule="nonzero">
            <path d="M108.05 87.25h3.3c.99 0 1.65-.66 1.65-1.65 0-.99-.66-1.65-1.65-1.65h-3.3c-.99 0-1.65.66-1.65 1.65 0 .99.66 1.65 1.65 1.65zM108.05 103.75h3.3c.99 0 1.65-.66 1.65-1.65 0-.99-.66-1.65-1.65-1.65h-3.3c-.99 0-1.65.66-1.65 1.65 0 .99.66 1.65 1.65 1.65zM108.05 120.25h3.3c.99 0 1.65-.66 1.65-1.65 0-.99-.66-1.65-1.65-1.65h-3.3c-.99 0-1.65.66-1.65 1.65 0 .99.66 1.65 1.65 1.65z" fill="#006B65"/>
            <path d="M127.85 69.1h-15.015v-1.155c0-2.145-1.65-3.795-3.795-3.795h-.99V62.5h16.5c1.815 0 3.3-1.485 3.465-3.3V32.8c0-1.815-1.485-3.3-3.3-3.3h-42.9c-1.815 0-3.3 1.485-3.3 3.3V46H57.23c-2.97 0-5.94 1.32-7.755 3.63-1.98 2.145-2.805 5.115-2.475 8.085L48.469 69.1h-16.32c-.99 0-1.649.66-1.649 1.65v6.6c0 .99.66 1.65 1.65 1.65h1.65v47.85c0 .99.66 1.65 1.65 1.65h6.6c.99 0 1.65-.66 1.65-1.65V79h6.078c.998 4.845 5.248 8.25 10.092 8.25h6.93v3.3h-8.25c-4.62 0-8.25 3.63-8.25 8.25 0 .99.66 1.65 1.65 1.65H66.8v9.9c-2.806 0-4.95 2.145-4.95 4.95v3.3h-6.6c-.99 0-1.65.66-1.65 1.65v4.95c0 .99.66 1.65 1.65 1.65h1.65c0 .99.66 1.65 1.65 1.65.99 0 1.65-.66 1.65-1.65h16.5c0 .99.66 1.65 1.65 1.65.99 0 1.65-.66 1.65-1.65h1.65c.99 0 1.65-.66 1.65-1.65v-4.95c0-.99-.66-1.65-1.65-1.65h-6.6v-3.3c0-2.805-2.145-4.95-4.95-4.95v-9.9h14.85c.99 0 1.65-.66 1.65-1.65 0-4.62-3.63-8.25-8.25-8.25H70.1v-3.3h7.26c4.844 0 9.094-3.405 10.091-8.25h5.75v47.85c0 .99.659 1.65 1.649 1.65h29.7c.99 0 1.65-.66 1.65-1.65V79h1.65c.99 0 1.65-.66 1.65-1.65v-6.6c0-.99-.66-1.65-1.65-1.65zM80 123.55H56.9v-1.65H80v1.65zm-8.25-8.25v3.3h-6.6v-3.3c0-.99.825-1.65 1.65-1.65h3.3c.99 0 1.65.825 1.65 1.65zM53.93 97.15c.66-1.98 2.475-3.3 4.62-3.3h8.25v3.3H53.93zm24.585-3.3c2.145 0 3.96 1.32 4.62 3.3H70.1v-3.3h8.415zM88.752 69.1l.844-6.6h8.554v1.65h-1.155c-2.145 0-3.795 1.65-3.795 3.795V69.1h-4.448zm20.453-1.65c.33 0 .495.165.495.495V69.1H96.665v-1.155c0-.33.165-.495.495-.495h12.045zm-4.455-3.3h-3.3V62.5h3.3v1.65zm1.65-4.95H90.065l.33-1.485V55.9h34.155v3.3H106.4zm18.15-26.4v19.635H89.575c-.423-1.092-1.027-2.11-1.82-2.97-.796-.863-1.728-1.589-2.748-2.153-.063-.036-.127-.07-.19-.104l-.11-.058c-.461-.241-.937-.443-1.425-.603-.53-.18-1.075-.319-1.632-.41V32.8h42.9zM40.4 125.2h-3.3V79h3.3v46.2zm1.65-49.5H33.8v-3.3h15.015l.495 3.3h-7.26zm35.31 8.25H59.87c-3.465 0-6.435-2.64-6.93-6.105L50.3 57.22c-.33-2.145.33-4.125 1.65-5.61 1.32-1.485 3.3-2.31 5.28-2.31H80c1.98 0 3.96.825 5.28 2.31 1.32 1.65 1.98 3.63 1.65 5.61l-2.64 20.625c-.495 3.465-3.465 6.105-6.93 6.105zm45.54 24.75H96.5V95.5h26.4v13.2zm0 16.5H96.5V112h26.4v13.2zm0-33H96.5V79h26.4v13.2zm3.3-16.5H87.92l.495-3.3H126.2v3.3z" fill="#006B65"/>
            <path d="M84.95 41.05c.495 0 .825-.165 1.155-.495l3.3-3.3c.66-.66.66-1.65 0-2.31-.66-.66-1.65-.66-2.31 0l-3.3 3.3c-.66.66-.66 1.65 0 2.31.33.33.66.495 1.155.495zM87.095 45.505c.33.33.66.495 1.155.495s.825-.165 1.155-.495l6.6-6.6c.66-.66.66-1.65 0-2.31-.66-.66-1.65-.66-2.31 0l-6.6 6.6c-.66.66-.66 1.65 0 2.31z" fill="#E8AE11"/>
        </g>
    </g>
</svg>
