<svg width="160" height="161" viewBox="0 0 160 161" xmlns="http://www.w3.org/2000/svg">
    <title>
        Beeldbank_icon
    </title>
    <g fill="none" fill-rule="evenodd">
        <path fill="transparent" d="M0 .847h160v160H0z"/>
        <g fill-rule="nonzero">
            <path d="M51.733 48.847H34.067v7.067H27v56.533h106V55.914H51.733v-7.067zM37.6 52.38h10.6v3.534H37.6V52.38zm14.133 56.534h-21.2v-3.534h21.2v3.534zm0-7.067h-21.2v-3.533h21.2v3.533zm77.734-42.4v49.467h-74.2V94.78H30.533V59.447h98.934z" fill="#006B65"/>
            <path d="M34.067 77.114h21.2V62.98h-21.2v14.134zm3.533-10.6h14.133v7.066H37.6v-7.066zM125.933 62.98H101.2v10.6h24.733v-10.6zm-3.533 7.067h-17.667v-3.533H122.4v3.533zM80 105.38c11.708 0 21.2-9.491 21.2-21.2 0-11.708-9.492-21.2-21.2-21.2-11.708 0-21.2 9.492-21.2 21.2.013 11.704 9.497 21.188 21.2 21.2zm0-38.866c9.757 0 17.667 7.91 17.667 17.666 0 9.757-7.91 17.667-17.667 17.667-9.757 0-17.667-7.91-17.667-17.667.011-9.752 7.914-17.656 17.667-17.666z" fill="#006B65"/>
            <path d="M80 98.314c7.806 0 14.133-6.328 14.133-14.134 0-7.805-6.327-14.133-14.133-14.133-7.806 0-14.133 6.328-14.133 14.133.008 7.802 6.331 14.125 14.133 14.134zm0-24.734c5.854 0 10.6 4.746 10.6 10.6 0 5.855-4.746 10.6-10.6 10.6-5.854 0-10.6-4.745-10.6-10.6.006-5.851 4.748-10.594 10.6-10.6z" fill="#E8AE11"/>
            <path fill="#006B65" d="M122.4 77.114h3.533v21.2H122.4zM122.4 101.847h3.533v3.533H122.4z"/>
            <path d="M83.533 84.18h3.534c.055-1.89-.672-3.72-2.01-5.057-1.337-1.338-3.166-2.065-5.057-2.01v3.534c.955-.061 1.89.291 2.566.967.676.677 1.029 1.612.967 2.566z" fill="#E8AE11"/>
        </g>
    </g>
</svg>
