<svg width="160" height="161" viewBox="0 0 160 161" xmlns="http://www.w3.org/2000/svg">
    <title>
        Diensten_icon
    </title>
    <g fill="none" fill-rule="evenodd">
        <path fill="transparent" d="M0 .847h160v160H0z"/>
        <g fill-rule="nonzero">
            <path d="M134.24 125.617H113.5c-1.041 0-1.885.844-1.885 1.885 0 1.042.844 1.886 1.885 1.886h20.74c1.04 0 1.885-.844 1.885-1.886 0-1.04-.844-1.885-1.886-1.885zM105.959 125.617H24.887c-1.041 0-1.885.844-1.885 1.885 0 1.042.844 1.886 1.885 1.886h81.072c1.04 0 1.885-.844 1.885-1.886 0-1.04-.844-1.885-1.885-1.885zM35.887 102.154c-.297-.609-.897-1.011-1.573-1.055-.675-.044-1.322.277-1.695.842s-.415 1.287-.109 1.89c.36.725.768 1.426 1.22 2.097.593.83 1.738 1.038 2.585.47.847-.568 1.088-1.707.545-2.57-.36-.537-.685-1.096-.973-1.674zM34.314 95.451c.01-8.326 6.757-15.073 15.083-15.083 1.042 0 1.886-.844 1.886-1.885 0-1.042-.844-1.886-1.886-1.886-10.408.012-18.842 8.446-18.853 18.854 0 1.041.844 1.885 1.885 1.885s1.885-.844 1.885-1.885z" fill="#006B65"/>
            <path d="M49.397 84.139c-6.247 0-11.312 5.065-11.312 11.312 0 6.248 5.065 11.312 11.312 11.312 6.248 0 11.313-5.064 11.313-11.312-.007-6.245-5.068-11.306-11.313-11.312zm0 18.854c-4.165 0-7.541-3.377-7.541-7.542s3.376-7.541 7.541-7.541c4.165 0 7.542 3.376 7.542 7.541 0 4.165-3.377 7.542-7.542 7.542z" fill="#006B65"/>
            <path d="M134.24 118.076h-2.093c2.544-2.477 3.978-5.877 3.978-9.427-.003-4.314-2.115-8.353-5.656-10.815V70.941c0-2.083-1.689-3.77-3.771-3.77h-11.312V50.2c0-1.04-.844-1.884-1.886-1.884h-5.656c-1.041 0-1.885.844-1.885 1.885s.844 1.885 1.885 1.885h3.77V67.17H87.106c-1.041 0-1.885.844-1.885 1.886v5.656h-7.165c-4.283-6.374-10.87-10.838-18.376-12.455l-1.784-8.088c-.144-.66-.629-1.192-1.272-1.396-.644-.204-1.347-.049-1.844.407-.498.456-.714 1.143-.566 1.801l1.464 6.642c-.835-.07-1.67-.109-2.509-.109h-9.427c-1.041 0-1.885.844-1.885 1.885 0 1.042.844 1.886 1.885 1.886h3.771v3.867c-11.491.803-21.128 8.979-23.794 20.185-2.667 11.206 2.256 22.846 12.154 28.739H24.887c-1.041 0-1.885.844-1.885 1.885 0 1.04.844 1.885 1.885 1.885H134.24c1.042 0 1.886-.844 1.886-1.885s-.844-1.885-1.886-1.885zM51.282 65.285h1.885c14.573.01 26.385 11.822 26.395 26.395 0 1.042.844 1.886 1.886 1.886 1.041 0 1.885-.845 1.885-1.886-.002-4.574-1.047-9.088-3.058-13.197h40.766c1.041 0 1.885-.844 1.885-1.886 0-1.04-.844-1.885-1.885-1.885H88.99v-3.77h37.708v25.075c-3.54-1.07-7.367-.591-10.534 1.32H75.696c.046-.626.097-1.249.097-1.886-.022-13.832-10.714-25.305-24.51-26.299v-3.867zm-24.51 30.166c0-12.495 10.13-22.624 22.624-22.624 12.496 0 22.625 10.129 22.625 22.624s-10.13 22.625-22.625 22.625c-12.49-.014-22.61-10.135-22.624-22.625zm36.15 22.625c6.24-3.733 10.669-9.87 12.244-16.969h36.953c-3.705 5.281-3.029 12.47 1.595 16.969H62.923zm60.004 0c-5.203-.007-9.42-4.224-9.427-9.427 0-5.207 4.22-9.427 9.427-9.427s9.427 4.22 9.427 9.427c0 5.206-4.22 9.427-9.427 9.427z" fill="#006B65"/>
            <path d="M122.927 102.993c-3.123 0-5.656 2.532-5.656 5.656 0 3.123 2.533 5.656 5.656 5.656 3.124 0 5.656-2.532 5.656-5.656 0-3.124-2.532-5.656-5.656-5.656zm0 7.541c-1.041 0-1.885-.844-1.885-1.885 0-1.042.844-1.886 1.885-1.886 1.042 0 1.886.844 1.886 1.886 0 1.041-.844 1.885-1.886 1.885zM96.532 86.024H113.5c1.042 0 1.886-.844 1.886-1.885s-.844-1.885-1.886-1.885H96.532c-1.041 0-1.885.844-1.885 1.885s.844 1.885 1.885 1.885zM96.532 93.566H113.5c1.042 0 1.886-.845 1.886-1.886s-.844-1.885-1.886-1.885H96.532c-1.041 0-1.885.844-1.885 1.885 0 1.042.844 1.886 1.885 1.886z" fill="#006B65"/>
            <path d="M83.508 45.866c-.117.494-.175 1-.174 1.508.002 2.943 1.952 5.53 4.782 6.34 2.829.81 5.853-.35 7.413-2.846 1.119.795 2.458 1.221 3.83 1.22 1.042 0 1.886-.845 1.886-1.886 0-1.04-.844-1.885-1.885-1.885-1.366.005-2.539-.97-2.783-2.313-.129-.708-.63-1.29-1.311-1.521-.681-.232-1.434-.076-1.967.406-.533.482-.764 1.215-.602 1.916.043.187.064.378.064.57 0 1.561-1.266 2.828-2.828 2.828-1.562 0-2.828-1.267-2.828-2.829 0-.615.199-1.214.566-1.708.421-.57.487-1.33.168-1.965-.319-.635-.967-1.037-1.677-1.04-1.562 0-2.828-1.266-2.828-2.828 0-1.562 1.266-2.828 2.828-2.828.497-.005.985.125 1.412.377.82.483 1.87.281 2.451-.471.884-1.133 2.242-1.794 3.679-1.792 1.25 0 2.448.497 3.332 1.38.884.885 1.38 2.084 1.38 3.334.007.204-.01.408-.048.609-.111.501-.013 1.026.271 1.453.285.427.73.72 1.235.81 1.344.245 2.319 1.418 2.314 2.784 0 1.041.844 1.885 1.885 1.885s1.885-.844 1.885-1.885c.004-2.552-1.465-4.878-3.77-5.971-.118-3.286-2.126-6.206-5.15-7.493-3.025-1.287-6.521-.709-8.97 1.484-.619-.183-1.261-.276-1.906-.275-3.115.008-5.8 2.193-6.44 5.241-.64 3.048.938 6.129 3.786 7.39z" fill="#E8AE11"/>
        </g>
    </g>
</svg>
