<?xml version="1.0" encoding="UTF-8"?>
<svg width="158px" height="67px" viewBox="0 0 158 67" version="1.1" xmlns="http://www.w3.org/2000/svg" xmlns:xlink="http://www.w3.org/1999/xlink">
    <!-- Generator: Sketch 52.5 (67469) - http://www.bohemiancoding.com/sketch -->
    <title>Vlaanderen_verbeelding werkt</title>
    <desc>Created with Sketch.</desc>
    <g id="Design" stroke="none" stroke-width="1" fill="none" fill-rule="evenodd">
        <g id="06.3_Verhaal-hoofdstuk" transform="translate(-1152.000000, -4142.000000)" fill="#222222">
            <g id="Group-Copy" transform="translate(0.000000, 3676.000000)">
                <g id="Component/Nav/Doormat/Variant-1">
                    <g id="Group-4">
                        <g transform="translate(128.000000, 466.000000)">
                            <g id="Vlaanderen_verbeelding-werkt" transform="translate(1024.000000, 0.000000)">
                                <polyline id="Fill-1" points="61.8290707 17.6489167 56.7379596 32.4192262 53.7120202 32.4192262 48.6209091 17.6489167 51.3595758 17.6489167 55.2249899 28.8650357 59.090404 17.6489167 61.8290707 17.6489167"></polyline>
                                <polyline id="Fill-2" points="63.5997879 16.4349405 65.8524848 16.214 66.1836465 16.214 66.1836465 32.1982857 63.5997879 32.1982857 63.5997879 16.4349405"></polyline>
                                <path d="M74.6446263,27.5625238 C73.4404747,27.5625238 72.5012525,27.5393929 71.8612727,27.6949286 C71.2204949,27.848869 70.8669899,28.179881 70.8669899,28.853869 C70.8669899,29.7926667 71.5404848,30.311119 72.4797071,30.311119 C72.799697,30.311119 73.3407273,30.2449167 73.8051515,29.9577738 C74.2687778,29.670631 74.6446263,29.1737143 74.6446263,28.2580476 L74.6446263,27.5625238 Z M77.7256263,32.4192262 C77.2947172,32.4192262 76.8749798,32.3530238 76.4440707,32.1647857 C76.0131616,31.9893095 75.5830505,31.691 75.1521414,31.2164167 C74.6988889,31.5577976 74.3014949,31.8561071 73.826697,32.065881 C73.3407273,32.2860238 72.799697,32.4192262 72.0599697,32.4192262 C71.5301111,32.4192262 70.9443939,32.3418571 70.3810202,32.14325 C69.8176465,31.9446429 69.2989596,31.613631 68.9119394,31.0720476 C68.5257172,30.5312619 68.2831313,29.7807024 68.2831313,28.7653333 C68.2831313,27.761131 68.5257172,26.9547381 69.1441515,26.4139524 C69.7625859,25.8731667 70.7680404,25.5748571 72.3025556,25.5748571 C72.9209899,25.5748571 73.6391717,25.5748571 74.655,25.6633929 L74.655,25.0891071 C74.655,24.2946786 74.4012424,23.7427262 73.9926768,23.4117143 C73.5841111,23.0807024 73.0319091,22.9482976 72.4134747,22.9482976 C71.9275051,22.9482976 71.3864747,23.0360357 70.8558182,23.1796071 C70.3259596,23.3231786 69.796101,23.510619 69.3428485,23.7315595 L68.7355859,21.479881 C69.9397374,20.9055952 71.4742525,20.508381 72.9209899,20.508381 C74.0589091,20.508381 75.1186263,20.7516548 75.9142121,21.3474762 C76.6986263,21.9432976 77.1949697,22.8820952 77.1949697,24.2835119 L77.1949697,28.5443929 C77.1949697,29.0859762 77.3721212,29.4720238 77.6809394,29.7368333 C77.9793838,30.0016429 78.3991212,30.156381 78.8962626,30.2560833 L77.7256263,32.4192262 Z" id="Fill-3"></path>
                                <path d="M85.9216768,27.5625238 C84.7183232,27.5625238 83.779899,27.5393929 83.1391212,27.6949286 C82.4983434,27.848869 82.1456364,28.179881 82.1456364,28.853869 C82.1456364,29.7926667 82.8191313,30.311119 83.7575556,30.311119 C84.0783434,30.311119 84.6185758,30.2449167 85.083,29.9577738 C85.5458283,29.670631 85.9216768,29.1737143 85.9216768,28.2580476 L85.9216768,27.5625238 Z M89.0026768,32.4192262 C88.5725657,32.4192262 88.1536263,32.3530238 87.7219192,32.1647857 C87.2918081,31.9893095 86.861697,31.691 86.4299899,31.2164167 C85.9775354,31.5577976 85.5801414,31.8561071 85.1045455,32.065881 C84.6185758,32.2860238 84.0783434,32.4192262 83.3378182,32.4192262 C82.8079596,32.4192262 82.2230404,32.3418571 81.6596667,32.14325 C81.0954949,31.9446429 80.5768081,31.613631 80.1905859,31.0720476 C79.8035657,30.5312619 79.5609798,29.7807024 79.5609798,28.7653333 C79.5609798,27.761131 79.8035657,26.9547381 80.422798,26.4139524 C81.0404343,25.8731667 82.0458889,25.5748571 83.581202,25.5748571 C84.1996364,25.5748571 84.9178182,25.5748571 85.9328485,25.6633929 L85.9328485,25.0891071 C85.9328485,24.2946786 85.6798889,23.7427262 85.2697273,23.4117143 C84.8619596,23.0807024 84.3097576,22.9482976 83.6913232,22.9482976 C83.2053535,22.9482976 82.6643232,23.0360357 82.1336667,23.1796071 C81.6038081,23.3231786 81.0739495,23.510619 80.6214949,23.7315595 L80.0134343,21.479881 C81.2175859,20.9055952 82.752899,20.508381 84.1996364,20.508381 C85.3367576,20.508381 86.3972727,20.7516548 87.1920606,21.3474762 C87.9756768,21.9432976 88.4728182,22.8820952 88.4728182,24.2835119 L88.4728182,28.5443929 C88.4728182,29.0859762 88.6507677,29.4720238 88.9587879,29.7368333 C89.2572323,30.0016429 89.6777677,30.156381 90.1733131,30.2560833 L89.0026768,32.4192262 Z" id="Fill-4"></path>
                                <path d="M91.7221919,20.7396905 L93.9094545,20.7396905 L94.1632121,21.634619 C95.2229293,20.9279286 96.538798,20.5195476 97.8195556,20.5195476 C98.9119899,20.5195476 99.9613333,20.8178571 100.723404,21.479881 C101.485475,22.1419048 101.982616,23.1684405 101.982616,24.5929881 L101.982616,32.1982857 L99.3987576,32.1982857 L99.3987576,25.3539167 C99.3987576,24.5044524 99.0899394,23.908631 98.6143434,23.5329524 C98.1387475,23.1572738 97.4764242,23.0033333 96.8037273,23.0033333 C95.9195657,23.0033333 95.0138586,23.2681429 94.3068485,23.7100238 L94.3068485,32.1982857 L91.7221919,32.1982857 L91.7221919,20.7396905" id="Fill-5"></path>
                                <path d="M111.769838,23.1684405 C111.118687,23.0033333 110.456364,22.9259643 109.937677,22.9259643 C108.953768,22.9259643 108.126263,23.2131071 107.550919,23.8089286 C106.97797,24.4055476 106.64601,25.2877143 106.64601,26.4801548 C106.64601,27.35275 106.888596,28.2022143 107.35302,28.853869 C107.817444,29.5047262 108.502111,29.9354405 109.418192,29.9354405 C110.202606,29.9354405 111.074798,29.6594643 111.769838,29.22875 L111.769838,23.1684405 Z M114.354495,32.1982857 L112.399444,32.1982857 L111.936616,31.3376548 C111.053253,31.9996786 110.124404,32.4192262 108.855616,32.4192262 C107.210182,32.4192262 105.982889,31.7564048 105.177727,30.7410357 C104.371768,29.7256667 103.974374,28.3569524 103.974374,26.9435714 C103.974374,24.7804286 104.625525,23.1684405 105.707586,22.0980357 C106.790444,21.038 108.31299,20.5195476 110.080515,20.5195476 C110.6,20.5195476 111.164172,20.55225 111.769838,20.629619 L111.769838,16.4349405 L113.957101,16.214 L114.354495,16.214 L114.354495,32.1982857 Z" id="Fill-6"></path>
                                <path d="M123.844071,25.3874167 C123.766667,24.5483214 123.490566,23.9525 123.093172,23.5552857 C122.695778,23.1684405 122.187465,23.0033333 121.690323,23.0033333 C121.160465,23.0033333 120.619434,23.1796071 120.177354,23.5656548 C119.724899,23.9636667 119.360222,24.5594881 119.216586,25.3874167 L123.844071,25.3874167 Z M125.621172,29.22875 L125.621172,31.734869 C125.101687,31.9893095 124.550283,32.14325 123.987707,32.2533214 C123.412364,32.3641905 122.849788,32.4192262 122.363818,32.4192262 C120.774242,32.4192262 119.304364,31.9223095 118.222303,30.9396429 C117.139444,29.9577738 116.455576,28.4566548 116.455576,26.4697857 C116.455576,24.5379524 117.095556,23.058369 118.068293,22.043 C119.028263,21.038 120.320192,20.5195476 121.612121,20.5195476 C121.976798,20.5195476 122.628747,20.5634167 123.302242,20.7955238 C123.976535,21.0268333 124.715465,21.4687143 125.268465,22.2304405 C125.820667,22.9921667 126.206889,24.1176071 126.206889,25.7072619 L126.206889,27.430119 L119.249303,27.430119 C119.458374,28.3569524 119.93397,28.9862738 120.552404,29.3834881 C121.160465,29.7807024 121.899394,29.9466071 122.639919,29.9466071 C123.611859,29.9466071 124.638859,29.670631 125.52302,29.19525 L125.621172,29.22875 Z" id="Fill-7"></path>
                                <path d="M134.922424,23.5879881 C134.271273,23.1907738 133.630495,23.0145 132.979343,23.0145 C132.140667,23.0145 131.367424,23.3231786 130.670788,23.8527976 L130.670788,32.1982857 L128.086929,32.1982857 L128.086929,20.7396905 L130.273394,20.7396905 L130.538323,21.6784881 C131.333111,21.0045 132.305848,20.5195476 133.454141,20.5195476 C133.76296,20.5195476 134.194667,20.5410833 134.613606,20.6184524 C135.033343,20.6958214 135.441111,20.8058929 135.740354,20.9717976 L134.922424,23.5879881" id="Fill-8"></path>
                                <path d="M143.021121,25.3874167 C142.942919,24.5483214 142.666818,23.9525 142.269424,23.5552857 C141.87203,23.1684405 141.363717,23.0033333 140.866576,23.0033333 C140.336717,23.0033333 139.796485,23.1796071 139.353606,23.5656548 C138.901152,23.9636667 138.536475,24.5594881 138.393636,25.3874167 L143.021121,25.3874167 Z M144.797424,29.22875 L144.797424,31.734869 C144.278737,31.9893095 143.726535,32.14325 143.16396,32.2533214 C142.589414,32.3641905 142.02604,32.4192262 141.540071,32.4192262 C139.950495,32.4192262 138.480616,31.9223095 137.399354,30.9396429 C136.315697,29.9577738 135.631828,28.4566548 135.631828,26.4697857 C135.631828,24.5379524 136.271808,23.058369 137.244545,22.043 C138.204515,21.038 139.497242,20.5195476 140.789172,20.5195476 C141.153848,20.5195476 141.805,20.5634167 142.478495,20.7955238 C143.153586,21.0268333 143.891717,21.4687143 144.445515,22.2304405 C144.996919,22.9921667 145.383141,24.1176071 145.383141,25.7072619 L145.383141,27.430119 L138.426354,27.430119 C138.634626,28.3569524 139.110222,28.9862738 139.729455,29.3834881 C140.336717,29.7807024 141.075646,29.9466071 141.816172,29.9466071 C142.788909,29.9466071 143.815909,29.670631 144.699273,29.19525 L144.797424,29.22875 Z" id="Fill-9"></path>
                                <path d="M147.263182,20.7396905 L149.449646,20.7396905 L149.704202,21.634619 C150.763919,20.9279286 152.07899,20.5195476 153.360545,20.5195476 C154.45298,20.5195476 155.501525,20.8178571 156.263596,21.479881 C157.025667,22.1419048 157.522808,23.1684405 157.522808,24.5929881 L157.522808,32.1982857 L154.938949,32.1982857 L154.938949,25.3539167 C154.938949,24.5044524 154.630131,23.908631 154.155333,23.5329524 C153.679737,23.1572738 153.017414,23.0033333 152.343919,23.0033333 C151.460556,23.0033333 150.554848,23.2681429 149.84704,23.7100238 L149.84704,32.1982857 L147.263182,32.1982857 L147.263182,20.7396905" id="Fill-10"></path>
                                <polyline id="Fill-11" points="57.907 42.2849762 55.6686667 48.7911548 54.3703535 48.7911548 52.1376061 42.2849762 53.1414646 42.2849762 55.022303 47.7566429 56.9039394 42.2849762 57.907 42.2849762"></polyline>
                                <path d="M62.6589697,44.9051548 C62.6525859,44.4034524 62.5831616,43.9464167 62.3892525,43.6074286 C62.1945455,43.2692381 61.8753535,43.0618571 61.3670404,43.0618571 C60.8714949,43.0618571 60.4764949,43.2564762 60.1756566,43.5827024 C59.8748182,43.908131 59.6801111,44.3723452 59.5987172,44.9051548 L62.6589697,44.9051548 Z M63.6117576,45.7825357 L59.5548283,45.7825357 C59.605101,46.5346905 59.8684343,47.0922262 60.2506667,47.4623214 C60.632899,47.8324167 61.147596,48.0134762 61.7053838,48.0134762 C62.2887071,48.0134762 62.8656465,47.8507619 63.4609394,47.5500595 L63.4800909,47.5564405 L63.4800909,48.4521667 C62.8026061,48.7847738 62.213697,48.916381 61.6120202,48.916381 C60.8028687,48.916381 60.0439899,48.6467857 59.4917879,48.082869 C58.9403838,47.5181548 58.5892727,46.6599167 58.5892727,45.4563095 C58.5892727,44.5286786 58.8023333,43.6951667 59.2603737,43.1057262 C59.7112323,42.5170833 60.4078687,42.1589524 61.3853939,42.1589524 C62.0564949,42.1589524 62.5209192,42.3288452 62.8528788,42.5984405 C63.1792525,42.8680357 63.3739596,43.2373333 63.4800909,43.6457143 C63.5870202,44.0532976 63.6117576,44.4975714 63.6117576,44.9051548 L63.6117576,45.7825357 Z" id="Fill-12"></path>
                                <path d="M65.3473636,42.2849762 L65.9993131,42.2849762 L66.2251414,43.024369 C66.7079192,42.4668333 67.2218182,42.1589524 67.8242929,42.1589524 C67.980697,42.1589524 68.175404,42.1788929 68.3693131,42.216381 C68.5640202,42.253869 68.7523434,42.316881 68.9023636,42.3854762 L68.5640202,43.2564762 C68.3190404,43.137631 67.9368081,43.0554762 67.6670909,43.0554762 C67.0965354,43.0554762 66.6512626,43.4199881 66.3185051,43.9272738 L66.3185051,48.7911548 L65.3473636,48.7911548 L65.3473636,42.2849762" id="Fill-13"></path>
                                <path d="M71.0896263,47.8260357 C71.5165455,47.995131 71.9362828,48.0262381 72.363202,48.0262381 C73.0151515,48.0262381 73.5729394,47.781369 73.9743232,47.3307143 C74.3693232,46.8856429 74.6015354,46.2339881 74.6015354,45.4132381 C74.6015354,44.7671667 74.457101,44.1841071 74.1371111,43.757381 C73.8171212,43.3314524 73.3287576,43.0618571 72.6329192,43.0618571 C71.9801717,43.0618571 71.4223838,43.2939643 71.0896263,43.7701429 L71.0896263,47.8260357 Z M70.1176869,39.8402738 L71.0273838,39.7150476 L71.0896263,39.7150476 L71.0896263,42.7300476 C71.5476667,42.3790952 72.086303,42.1589524 72.7645859,42.1589524 C73.6168283,42.1589524 74.3190505,42.5226667 74.8082121,43.1192857 C75.2973737,43.7198929 75.5734747,44.5534048 75.5734747,45.5001786 C75.5734747,46.4214286 75.3165253,47.274881 74.7770909,47.894631 C74.2376566,48.5215595 73.4157374,48.916381 72.2937778,48.916381 C71.4846263,48.916381 70.7201616,48.7034167 70.1176869,48.4521667 L70.1176869,39.8402738 Z" id="Fill-14"></path>
                                <path d="M80.6454343,44.9051548 C80.6390505,44.4034524 80.5696263,43.9464167 80.3757172,43.6074286 C80.1802121,43.2692381 79.8610202,43.0618571 79.3527071,43.0618571 C78.8571616,43.0618571 78.4621616,43.2564762 78.1613232,43.5827024 C77.8604848,43.908131 77.6657778,44.3723452 77.5851818,44.9051548 L80.6454343,44.9051548 Z M81.5982222,45.7825357 L77.5404949,45.7825357 C77.5907677,46.5346905 77.854899,47.0922262 78.2371313,47.4623214 C78.6193636,47.8324167 79.1332626,48.0134762 79.6918485,48.0134762 C80.2751717,48.0134762 80.8513131,47.8507619 81.447404,47.5500595 L81.4665556,47.5564405 L81.4665556,48.4521667 C80.7890707,48.7847738 80.1993636,48.916381 79.5976869,48.916381 C78.7885354,48.916381 78.0296566,48.6467857 77.4782525,48.082869 C76.9260505,47.5181548 76.5749394,46.6599167 76.5749394,45.4563095 C76.5749394,44.5286786 76.788798,43.6951667 77.2460404,43.1057262 C77.697697,42.5170833 78.3935354,42.1589524 79.3718586,42.1589524 C80.0429596,42.1589524 80.5073838,42.3288452 80.8393434,42.5984405 C81.1657172,42.8680357 81.3596263,43.2373333 81.4665556,43.6457143 C81.5734848,44.0532976 81.5982222,44.4975714 81.5982222,44.9051548 L81.5982222,45.7825357 Z" id="Fill-15"></path>
                                <path d="M86.5752222,44.9051548 C86.5688384,44.4034524 86.5002121,43.9464167 86.3055051,43.6074286 C86.111596,43.2692381 85.7916061,43.0618571 85.2840909,43.0618571 C84.7885455,43.0618571 84.3935455,43.2564762 84.0927071,43.5827024 C83.7910707,43.908131 83.5971616,44.3723452 83.5149697,44.9051548 L86.5752222,44.9051548 Z M87.5288081,45.7825357 L83.4718788,45.7825357 C83.5213535,46.5346905 83.7846869,47.0922262 84.1677172,47.4623214 C84.5499495,47.8324167 85.0646465,48.0134762 85.6224343,48.0134762 C86.2049596,48.0134762 86.782697,47.8507619 87.3779899,47.5500595 L87.3963434,47.5564405 L87.3963434,48.4521667 C86.7196566,48.7847738 86.1307475,48.916381 85.5282727,48.916381 C84.7191212,48.916381 83.9610404,48.6467857 83.4088384,48.082869 C82.8566364,47.5181548 82.5063232,46.6599167 82.5063232,45.4563095 C82.5063232,44.5286786 82.7185859,43.6951667 83.1766263,43.1057262 C83.6282828,42.5170833 84.3241212,42.1589524 85.3024444,42.1589524 C85.9735455,42.1589524 86.4371717,42.3288452 86.7699293,42.5984405 C87.096303,42.8680357 87.2910101,43.2373333 87.3963434,43.6457143 C87.5032727,44.0532976 87.5288081,44.4975714 87.5288081,44.9051548 L87.5288081,45.7825357 Z" id="Fill-16"></path>
                                <polyline id="Fill-17" points="88.9372424 39.8402738 89.8405556 39.7150476 89.903596 39.7150476 89.903596 48.7911548 88.9372424 48.7911548 88.9372424 39.8402738"></polyline>
                                <path d="M95.8908384,43.3067262 C95.4519495,43.137631 95.0258283,43.0498929 94.6180606,43.0498929 C93.9661111,43.0498929 93.4083232,43.2564762 93.0133232,43.6704405 C92.6119394,44.0844048 92.3797273,44.7041548 92.3797273,45.5257024 C92.3797273,46.1709762 92.5233636,46.7915238 92.8433535,47.2485595 C93.1633434,47.7071905 93.6525051,48.0070952 94.3483434,48.0070952 C95.0010909,48.0070952 95.5461111,47.781369 95.8908384,47.2996071 L95.8908384,43.3067262 Z M96.8635758,48.7911548 L96.2483333,48.7911548 L96.0472424,48.2144762 C95.5524949,48.6412024 94.9691717,48.91 94.2166768,48.91 C93.3636364,48.91 92.6614141,48.5151786 92.1722525,47.881869 C91.6838889,47.2557381 91.4077879,46.3903214 91.4077879,45.4443452 C91.4077879,44.5222976 91.6711212,43.7079286 92.2105556,43.1129048 C92.7491919,42.5170833 93.5647273,42.1589524 94.6866869,42.1589524 C95.1128081,42.1589524 95.5086061,42.216381 95.8908384,42.2905595 L95.8908384,39.8402738 L96.8005354,39.7150476 L96.8635758,39.7150476 L96.8635758,48.7911548 Z" id="Fill-18"></path>
                                <path d="M99.0564242,48.7911548 L100.02198,48.7911548 L100.02198,42.2849762 L99.0564242,42.2849762 L99.0564242,48.7911548 Z M98.868101,40.5110714 C98.868101,40.3300119 98.9431111,40.160119 99.0683939,40.0348929 C99.1880909,39.9160476 99.3572626,39.8402738 99.539202,39.8402738 C99.7211414,39.8402738 99.8903131,39.9160476 100.015596,40.0348929 C100.140879,40.160119 100.216687,40.3300119 100.216687,40.5110714 C100.216687,40.6929286 100.140879,40.8564405 100.015596,40.9752857 C99.8903131,41.0997143 99.7211414,41.1754881 99.539202,41.1754881 C99.3572626,41.1754881 99.1880909,41.0997143 99.0683939,40.9752857 C98.9431111,40.8564405 98.868101,40.6929286 98.868101,40.5110714 Z" id="Fill-19"></path>
                                <path d="M102.222808,42.2849762 L102.87396,42.2849762 L103.055899,42.8871786 C103.325616,42.7117024 103.65199,42.5290476 103.996717,42.3910595 C104.341444,42.253869 104.698939,42.1589524 105.006162,42.1589524 C105.62699,42.1589524 106.197545,42.316881 106.623667,42.7045238 C107.045,43.0929643 107.308333,43.7079286 107.308333,44.6291786 L107.308333,48.7911548 L106.335596,48.7911548 L106.335596,44.6850119 C106.335596,44.058881 106.172808,43.6520952 105.921444,43.4008452 C105.664495,43.1503929 105.307798,43.0554762 104.912798,43.0554762 C104.611162,43.0554762 104.303939,43.137631 104.009485,43.2564762 C103.71503,43.376119 103.445313,43.5324524 103.193949,43.6832024 L103.193949,48.7911548 L102.222808,48.7911548 L102.222808,42.2849762" id="Fill-20"></path>
                                <path d="M111.243172,43.024369 C110.761192,43.024369 110.390929,43.2062262 110.139566,43.4630595 C109.889,43.7198929 109.763717,44.058881 109.763717,44.3843095 C109.763717,44.7105357 109.895384,45.0487262 110.145949,45.3063571 C110.397313,45.5631905 110.767576,45.7386667 111.263121,45.7386667 C111.745101,45.7386667 112.10898,45.5631905 112.35396,45.3063571 C112.598141,45.0551071 112.71704,44.7232976 112.71704,44.3970714 C112.71704,44.0716429 112.591758,43.7262738 112.347576,43.4630595 C112.09701,43.1998452 111.726747,43.024369 111.243172,43.024369 Z M110.215374,48.2647262 C109.864263,48.6659286 109.638434,49.1732143 109.638434,49.6246667 C109.638434,50.0067262 109.744566,50.3393333 109.995929,50.5706429 C110.246495,50.80275 110.641495,50.9407381 111.218434,50.9407381 C111.870384,50.9407381 112.42897,50.7277738 112.830354,50.4206905 C113.225354,50.1199881 113.451182,49.7187857 113.451182,49.3239643 C113.451182,48.8406071 113.168697,48.5773929 112.71704,48.4274405 C112.259798,48.2830714 111.632586,48.2647262 110.948717,48.2647262 L110.215374,48.2647262 Z M111.814525,47.4312143 C112.710657,47.4312143 113.36899,47.6377976 113.802293,47.9759881 C114.228414,48.3141786 114.441475,48.7783929 114.441475,49.26175 C114.441475,49.9700357 114.00897,50.6025476 113.375374,51.054 C112.742576,51.5110357 111.901505,51.7870119 111.093152,51.7870119 C110.34704,51.7870119 109.744566,51.5557024 109.331212,51.1792262 C108.917061,50.809131 108.684848,50.2890833 108.684848,49.7124048 C108.684848,49.1859762 108.967333,48.5590476 109.462879,48.0581429 C109.287323,47.9576429 109.155657,47.78775 109.067879,47.5939286 C108.979303,47.4001071 108.929828,47.1927262 108.929828,47.0116667 C108.929828,46.6599167 109.092616,46.2587143 109.400636,45.8766548 C109.224283,45.6947976 109.086232,45.4443452 108.999253,45.168369 C108.910677,44.8987738 108.861202,44.6044524 108.861202,44.3284762 C108.861202,43.7079286 109.105384,43.1687381 109.532303,42.7802976 C109.958424,42.3910595 110.560101,42.1589524 111.268707,42.1589524 C111.751485,42.1589524 112.177606,42.2658333 112.529515,42.4604524 C112.804818,42.253869 113.118424,42.0847738 113.407293,41.9715119 C113.695364,41.85825 113.971465,41.8024167 114.190909,41.8024167 L114.479778,42.6231667 C114.134253,42.6797976 113.683394,42.823369 113.256475,43.0929643 C113.500657,43.4447143 113.632323,43.8515 113.632323,44.3029524 C113.632323,44.9235 113.381758,45.4937976 112.955636,45.9133452 C112.523131,46.3344881 111.914273,46.5977024 111.205667,46.5977024 C110.748424,46.5977024 110.34704,46.4844405 110.002313,46.3145476 C109.857879,46.4972024 109.782071,46.6782619 109.782071,46.8473571 C109.782071,47.174381 110.065354,47.4312143 110.584838,47.4312143 L111.814525,47.4312143 Z" id="Fill-21"></path>
                                <polyline id="Fill-22" points="128.109273 42.2849762 126.045697 48.7911548 124.841545 48.7911548 123.39401 43.8395357 121.944879 48.7911548 120.735141 48.7911548 118.677949 42.2849762 119.61797 42.2849762 121.336818 47.7191548 122.947939 42.2849762 123.838485 42.2849762 125.450404 47.7191548 127.174838 42.2849762 128.109273 42.2849762"></polyline>
                                <path d="M132.86603,44.9051548 C132.859646,44.4034524 132.79102,43.9464167 132.596313,43.6074286 C132.402404,43.2692381 132.082414,43.0618571 131.574899,43.0618571 C131.079354,43.0618571 130.684354,43.2564762 130.383515,43.5827024 C130.081879,43.908131 129.88797,44.3723452 129.805778,44.9051548 L132.86603,44.9051548 Z M133.818818,45.7825357 L129.761889,45.7825357 C129.812162,46.5346905 130.075495,47.0922262 130.457727,47.4623214 C130.840758,47.8324167 131.354657,48.0134762 131.913242,48.0134762 C132.495768,48.0134762 133.073505,47.8507619 133.668798,47.5500595 L133.687152,47.5564405 L133.687152,48.4521667 C133.010465,48.7847738 132.420758,48.916381 131.818283,48.916381 C131.009929,48.916381 130.251848,48.6467857 129.699646,48.082869 C129.147444,47.5181548 128.796333,46.6599167 128.796333,45.4563095 C128.796333,44.5286786 129.009394,43.6951667 129.467434,43.1057262 C129.919091,42.5170833 130.614929,42.1589524 131.593253,42.1589524 C132.264354,42.1589524 132.72798,42.3288452 133.060737,42.5984405 C133.386313,42.8680357 133.58102,43.2373333 133.687152,43.6457143 C133.794081,44.0532976 133.818818,44.4975714 133.818818,44.9051548 L133.818818,45.7825357 Z" id="Fill-23"></path>
                                <path d="M135.555222,42.2849762 L136.207172,42.2849762 L136.433,43.024369 C136.915778,42.4668333 137.430475,42.1589524 138.032152,42.1589524 C138.189354,42.1589524 138.383263,42.1788929 138.57797,42.216381 C138.771879,42.253869 138.960202,42.316881 139.11102,42.3854762 L138.771879,43.2564762 C138.527697,43.137631 138.144667,43.0554762 137.874949,43.0554762 C137.304394,43.0554762 136.859919,43.4199881 136.527162,43.9272738 L136.527162,48.7911548 L135.555222,48.7911548 L135.555222,42.2849762" id="Fill-24"></path>
                                <path d="M144.852485,48.916381 C144.526909,48.8980357 144.144677,48.6906548 143.761646,48.3899524 C143.379414,48.095631 142.97803,47.6944286 142.626919,47.2868452 C142.269424,46.8856429 141.943848,46.4724762 141.711636,46.139869 C141.591939,45.9771548 141.497778,45.8391667 141.429152,45.7195238 C141.354141,45.6006786 141.310253,45.5257024 141.297485,45.4874167 L141.297485,48.7911548 L140.326343,48.7911548 L140.326343,39.8841429 L141.234444,39.7150476 L141.297485,39.7150476 L141.297485,45.3685714 L143.881343,42.2849762 L145.122202,42.2849762 L142.476899,45.4315833 C142.50802,45.5759524 142.714697,45.8766548 143.016333,46.2276071 C143.317172,46.5849405 143.705788,46.9925238 144.107172,47.3370952 C144.508556,47.6816667 144.921909,47.9576429 145.253869,48.0581429 L144.852485,48.916381" id="Fill-25"></path>
                                <path d="M145.685576,42.2849762 L146.406949,42.2849762 L146.406949,41.1196548 L147.315848,40.9497619 L147.378889,40.9497619 L147.378889,42.2849762 L149.184717,42.2849762 L149.184717,43.1870833 L147.378889,43.1870833 L147.378889,46.3839405 C147.378889,46.9789643 147.510556,47.3801667 147.717232,47.6441786 C147.924707,47.9065952 148.219162,48.0198571 148.551121,48.0198571 C148.927768,48.0198571 149.347505,47.8754881 149.773626,47.6314167 L150.03696,48.5215595 C149.485556,48.7720119 148.939737,48.916381 148.432222,48.916381 C147.861667,48.916381 147.366121,48.7409048 146.996657,48.334119 C146.626394,47.9329167 146.406949,47.2932262 146.406949,46.3839405 L146.406949,43.1870833 L145.685576,43.1870833 L145.685576,42.2849762" id="Fill-26"></path>
                                <polyline id="Fill-28" points="51.8072424 67 29.2738889 0.77847619 29.5946768 0.669202381 52.1280303 66.8907262 51.8072424 67"></polyline>
                                <path d="M29.4159293,33.6978095 C27.7904444,32.4575119 27.0291717,33.707381 26.0061616,33.6244286 C25.1411515,33.5558333 24.331202,32.16 23.661697,32.4934048 C22.3841313,33.1434643 24.174,35.4414048 24.9504343,35.9096071 C25.6414848,36.324369 26.5128788,36.7064286 26.7219495,36.8029405 C27.7489495,37.2823095 28.1575152,38.0081429 28.2867879,39.1423571 C28.3195051,39.402381 28.2867879,39.9966071 28.2229495,40.2717857 C27.7545354,42.26025 24.2705556,44.0652619 22.2700202,42.6989405 C21.3276061,42.0544643 20.4673838,41.2209524 20.1697374,39.7453571 C19.631101,37.1331548 17.7446768,35.2116905 17.1398081,32.6553214 C16.7719394,31.1023571 16.4998283,29.46325 16.0944545,27.9007143 C15.681899,26.2855357 15.2573737,24.6855119 14.9190303,23.2178929 C14.6102121,21.8531667 13.9614545,19.8144524 13.4914444,18.5717619 C11.5802828,13.5850476 10.7168687,13.9471667 10.7168687,13.9471667 C10.7168687,13.9471667 11.4127071,15.3318333 13.943101,27.55375 C14.0476364,28.0538571 14.9669091,33.4377857 15.6388081,35.2108929 C15.879,35.8457976 16.2979394,37.2033452 16.5740404,37.8031548 C17.379202,39.5539286 19.5042222,42.2084048 19.6446667,44.6012619 C19.7252626,45.9843333 19.8832626,47.1297143 19.9151818,48.1761905 C19.9359293,48.4832738 20.0715859,49.7315476 20.2710808,50.2858929 C20.7897677,51.7455357 24.9791616,56.4546786 29.427101,56.4546786 L29.427101,52.886131 C25.0070909,52.886131 20.8448283,50.4103214 20.7418889,50.1502976 C20.6780505,50.0330476 20.9717071,48.3444881 21.2709495,47.5939286 C21.8494848,46.1406667 22.9419192,44.8118333 24.8618586,44.6698571 C27.0020404,44.5159167 28.2947677,45.1372619 29.427101,45.1372619 L29.4159293,33.6978095" id="Fill-30"></path>
                                <path d="M10.2245152,20.7452738 C10.0625253,23.4172976 5.92420202,27.0719881 4.62748485,29.4153929 C3.99229293,30.5679524 3.21665657,32.5468452 3.01636364,33.6930238 C2.46575758,36.8819048 3.1639899,38.8639881 3.9420202,40.729619 C5.31135354,44.0110238 3.75688889,45.2162262 4.8269798,44.5510119 C6.15242424,43.4718333 5.95133333,40.9545476 5.85318182,39.3824405 C5.77657576,38.10625 5.69039394,36.6561786 5.88430303,35.1359167 C6.25137374,32.2908095 7.9750101,29.2375238 9.44568687,27.1030952 C11.1924646,24.5578929 10.5580707,21.9249524 10.2245152,20.7452738" id="Fill-31"></path>
                                <path d="M11.058404,28.3354167 C11.058404,28.3354167 11.4996869,30.4530952 9.63081818,35.8976429 C4.74319192,50.1375357 14.0795556,51.4871071 16.7376263,54.8347143 C16.7376263,54.8347143 17.7662222,53.3846429 13.5321414,48.7417024 C11.9856566,47.0459643 10.5907879,43.3083214 11.8053131,37.9698571 C13.5632626,30.2393333 11.058404,28.3354167 11.058404,28.3354167" id="Fill-32"></path>
                                <path d="M1.81620202,18.9992857 C1.59276768,18.1585952 1.52493939,17.4056429 1.57361616,16.7340476 C1.79944444,13.3880357 4.83974747,12.0336786 5.5970303,11.5351667 C5.5970303,11.5351667 6.9639697,10.5995595 7.14032323,9.65438095 C7.14032323,9.65438095 8.5399798,13.1766667 5.33050505,15.1938452 C3.70182828,16.2187857 2.5950303,17.42 1.81620202,18.9992857" id="Fill-33"></path>
                                <path d="M9.48239394,15.7657381 C9.65555556,16.1047262 10.9155657,17.9488214 5.7550303,22.2057143 C0.604868687,26.4570238 2.21359596,29.4959524 2.21359596,29.4959524 C2.21359596,29.4959524 -3.28448485,26.4394762 3.04908081,21.1584405 C9.37945455,15.8821905 8.08193939,14.8117857 8.08193939,14.8117857 C8.08193939,14.8117857 8.98844444,14.7687143 9.48239394,15.7657381" id="Fill-35"></path>
                                <path d="M18.958404,18.6459405 C19.0334141,18.4465357 19.1411414,18.6068571 19.3669697,18.464881 C19.6079596,18.2375595 19.8545354,17.8642738 20.2463434,17.7398452 C20.5264343,17.6537024 20.9118586,17.694381 21.1743939,17.7956786 C21.3483535,17.83875 21.2430202,18.2878095 21.1121515,18.4026667 C20.8328586,18.6084524 20.0093434,18.2694643 20.0093434,18.8868214 C20.0436566,19.8982024 21.3778788,18.8549167 22.0753131,18.883631 C22.4152525,21.3522619 18.3519394,20.6726905 18.958404,18.6459405 Z M16.1814343,17.3952738 C17.0727778,17.5117262 17.6401414,20.290631 19.7021212,20.8952262 C21.2182828,21.3379048 22.830202,21.0978214 23.187697,22.0095 C22.4918586,22.3787976 23.0408687,23.6015476 23.740697,23.4013452 C24.3176364,21.7773929 24.608101,15.5009286 16.1814343,17.3952738 Z" id="Fill-37"></path>
                            </g>
                        </g>
                    </g>
                </g>
            </g>
        </g>
    </g>
</svg>