<svg width="51" height="24" viewBox="0 0 51 24" xmlns="http://www.w3.org/2000/svg">
    <title>
        Creative commons
    </title>
    <g fill="#006B65" fill-rule="nonzero">
        <path d="M38.871.259c3.298 0 6.08 1.132 8.344 3.396 2.278 2.279 3.418 5.06 3.418 8.345 0 3.299-1.119 6.045-3.355 8.24-2.376 2.334-5.178 3.501-8.407 3.501-3.173 0-5.926-1.154-8.26-3.46-2.306-2.306-3.46-5.066-3.46-8.281 0-3.214 1.154-5.996 3.46-8.344C32.875 1.39 35.628.259 38.87.259zm.042 2.118c-2.67 0-4.927.936-6.772 2.81-1.915 1.956-2.873 4.228-2.873 6.813 0 2.6.95 4.85 2.851 6.75 1.901 1.902 4.165 2.852 6.793 2.852 2.614 0 4.893-.957 6.835-2.872 1.846-1.775 2.768-4.019 2.768-6.73 0-2.67-.937-4.94-2.81-6.814-1.872-1.873-4.136-2.81-6.792-2.81zm3.145 6.709v4.8h-1.341v5.703h-3.649v-5.702h-1.341V9.086c0-.21.073-.388.22-.535.147-.146.325-.22.534-.22h4.823c.195 0 .37.073.524.22.153.147.23.325.23.535zm-4.802-3.02c0-1.103.545-1.655 1.636-1.655 1.09 0 1.635.551 1.635 1.656 0 1.09-.545 1.635-1.635 1.635-1.09 0-1.636-.545-1.636-1.635zM11.903.259c3.284 0 6.08 1.147 8.386 3.439 1.104 1.104 1.943 2.365 2.516 3.784.573 1.419.86 2.925.86 4.518 0 1.607-.284 3.114-.849 4.518-.566 1.404-1.402 2.645-2.505 3.721-1.146 1.132-2.446 2-3.9 2.6-1.453.601-2.956.902-4.507.902-1.552 0-3.037-.297-4.456-.892-1.418-.593-2.69-1.453-3.816-2.578-1.125-1.125-1.98-2.394-2.568-3.805-.587-1.412-.88-2.9-.88-4.466 0-1.552.296-3.043.89-4.476.594-1.433 1.458-2.715 2.59-3.848C5.9 1.4 8.646.26 11.903.26zm.042 2.118c-2.683 0-4.94.936-6.772 2.81-.923.936-1.632 1.987-2.128 3.155-.497 1.167-.744 2.386-.744 3.658 0 1.258.247 2.471.744 3.638.496 1.167 1.205 2.209 2.128 3.124.922.916 1.963 1.614 3.124 2.097 1.16.482 2.376.723 3.648.723 1.258 0 2.477-.244 3.66-.733 1.18-.49 2.245-1.195 3.196-2.118 1.831-1.789 2.746-4.032 2.746-6.73 0-1.3-.237-2.53-.713-3.69-.474-1.16-1.166-2.194-2.074-3.104-1.888-1.887-4.159-2.83-6.815-2.83zm-.147 7.674l-1.573.817c-.168-.348-.374-.594-.618-.733-.245-.14-.472-.21-.682-.21-1.048 0-1.572.692-1.572 2.076 0 .629.133 1.131.398 1.509.266.377.657.566 1.174.566.685 0 1.167-.335 1.447-1.006l1.447.734c-.308.573-.734 1.024-1.28 1.352-.544.329-1.145.493-1.802.493-1.048 0-1.895-.321-2.537-.965-.643-.643-.965-1.537-.965-2.683 0-1.118.325-2.005.975-2.663.65-.656 1.471-.985 2.464-.985 1.454 0 2.495.565 3.124 1.698zm6.772 0l-1.551.817c-.168-.348-.375-.594-.619-.733-.245-.14-.48-.21-.702-.21-1.049 0-1.573.692-1.573 2.076 0 .629.133 1.131.398 1.509.266.377.657.566 1.175.566.684 0 1.166-.335 1.446-1.006l1.467.734c-.32.573-.754 1.024-1.299 1.352-.545.329-1.14.493-1.782.493-1.063 0-1.911-.321-2.547-.965-.637-.643-.954-1.537-.954-2.683 0-1.118.324-2.005.975-2.663.65-.656 1.47-.985 2.463-.985 1.454 0 2.489.565 3.103 1.698z"/>
    </g>
</svg>
